<?xml version="1.0" encoding="iso-8859-1"?>
<!-- Generator: Adobe Illustrator 27.0.0, SVG Export Plug-In . SVG Version: 6.00 Build 0)  -->
<svg version="1.1" id="Layer_1" xmlns="http://www.w3.org/2000/svg" xmlns:xlink="http://www.w3.org/1999/xlink" x="0px" y="0px"
	 viewBox="0 0 1080 1080" style="enable-background:new 0 0 1080 1080;" xml:space="preserve">
<g>
	<path style="fill:#FFFFFF;" d="M372.967,729.415c-7.036-1.24-13.744-4.704-18.97-10.366L188.224,539.665
		c-13.478-14.609-19.601-34.281-16.723-53.945c2.87-19.687,14.329-36.801,31.426-46.956L425.056,307.03
		c16.138-9.539,36.91-4.228,46.426,11.872c9.539,16.091,4.243,36.894-11.848,46.449L239.852,495.665l163.917,177.38
		c12.698,13.744,11.872,35.194-1.896,47.892C393.809,728.393,383.053,731.186,372.967,729.415z"/>
</g>
<g>
	<path style="fill:#FFFFFF;" d="M644.033,777.198c-10.085-1.786-19.227-8.081-24.281-17.854
		c-8.58-16.637-2.028-37.089,14.609-45.646l199.571-102.812c5.094-2.613,6.685-7.035,7.184-9.453
		c0.499-2.395,0.803-7.098-2.831-11.521L687.151,405.458c-11.872-14.485-9.734-35.826,4.75-47.689
		c14.5-11.871,35.825-9.734,47.689,4.727L890.724,546.95c15.678,19.141,21.801,44.015,16.77,68.25
		c-5.008,24.235-20.514,44.624-42.51,55.949L665.413,773.961C658.557,777.479,651.068,778.438,644.033,777.198z"/>
</g>
<g>
	<path style="fill:#FFFFFF;" d="M468.634,834.302c-2.574-0.133-5.163-0.569-7.706-1.303c-17.963-5.226-28.314-24.024-23.088-42.011
		l151.507-520.876c5.226-17.963,24.11-28.314,42.011-23.065c17.964,5.226,28.314,24.024,23.088,42.011L502.939,809.935
		C498.43,825.309,483.993,835.105,468.634,834.302z"/>
</g>
</svg>
